<?xml version="1.0" encoding="utf-8"?>
<!-- Svg Vector Icons : http://www.onlinewebfonts.com/icon -->
<!DOCTYPE svg PUBLIC "-//W3C//DTD SVG 1.1//EN" "http://www.w3.org/Graphics/SVG/1.1/DTD/svg11.dtd">
<svg version="1.1" xmlns="http://www.w3.org/2000/svg" xmlns:xlink="http://www.w3.org/1999/xlink" x="0px" y="0px" viewBox="0 0 1000 1000" enable-background="new 0 0 1000 1000" xml:space="preserve">
<metadata> Svg Vector Icons : http://www.onlinewebfonts.com/icon </metadata>
<g><g><g><path d="M439.4,549.1c-31.7-0.3-57-26.3-56.7-57.9c0.3-31.6,26.3-57,57.8-56.7c16.2,0.1,30.7,7,41,17.9l14.2,0.1l1.6-155.7l-136.5-1.4l-0.2,20.2c10.6,10.6,17.2,25.2,17.1,41.3c-0.3,31.6-26.3,57-57.8,56.7c-31.6-0.3-57-26.3-56.7-57.8c0.2-16.2,7-30.6,17.9-40.9l0.2-20.2l-133.9-1.4l-1.5,148.3l-21-0.3c-11.9-12.6-28.8-20.5-47.5-20.8c-36.7-0.3-66.8,29.1-67.2,65.9c-0.4,36.7,29.1,66.8,65.8,67.1c18.8,0.3,35.7-7.4,48-19.7l20.9,0.2L143,699.6l133.9,1.3l0.3-25.6c-10.6-10.5-17.2-25.1-17.1-41.3c0.4-31.6,26.2-56.9,57.8-56.6c31.6,0.4,57,26.2,56.7,57.8c-0.2,16.2-7,30.6-17.9,41l-0.2,25.5l136.5,1.4l1.8-171l-14.2-0.1C470.2,542.7,455.5,549.3,439.4,549.1z"/><path d="M924.2,446.4c-18.8-0.3-35.7,7.4-47.9,19.8l-21-0.2l0.2-9.9h0.5l1.6-155.7L727,299v0.1l-3.9-0.1l-0.3,25.6c5.5,5.5,9.9,12.1,12.8,19.3c1.3,5.3,2.3,10.7,2.2,16.5c-0.4,31.6-26.3,57-57.9,56.7c-23-0.3-42.6-14.1-51.5-33.8c-2-5.9-3.2-12.1-3.2-18.7c0.2-16.1,7-30.6,17.9-41l0.3-25.6l-2.1,0l0,0l-133.9-1.4l0,0H507l-1.7,162.6l-29.5-0.2c-8.8-9.4-21.3-15.3-35.2-15.3c-26.7,0-48.4,21.7-48.4,48.4s21.7,48.4,48.4,48.4c14.5,0,27.4-6.5,36.3-16.7l28.2,0.2l-0.2,23.2h-0.5l-1.6,155.7h0.8l0,3.5l133.6-2.3l0.3-25.6c-6.4-6.3-11-14.2-13.9-22.8c-0.6-4.2-1.2-8.5-1.1-13c0.3-31.7,26.2-57,57.9-56.7c22.9,0.3,42.5,14.1,51.4,33.8c2,6,3.3,12.1,3.3,18.7c-0.2,16.2-7,30.6-17.9,41l-0.3,25.5h2.1l0,0l133.9,1.4l0,0h0.5l1.5-148.3l20.4,0.3c12,12.5,28.8,20.5,47.5,20.8c36.7,0.4,66.9-29.2,67.2-65.8C990.4,476.8,961,446.7,924.2,446.4z"/></g></g><g></g><g></g><g></g><g></g><g></g><g></g><g></g><g></g><g></g><g></g><g></g><g></g><g></g><g></g><g></g></g>
</svg>